<svg width="1041" height="1117" viewBox="0 0 1041 1117" fill="none" xmlns="http://www.w3.org/2000/svg">
<path d="M431.853 1119C422.608 979.177 376.406 927.488 212.026 888.77C18.7958 825.335 13.7153 771.381 133.393 652.224C329.944 510.163 573.62 527.061 781.394 355.393C916.08 235.905 973.371 158.426 1040.25 0" stroke="#4D3D26"/>
<path d="M431.853 1119C422.608 979.177 376.406 927.488 212.026 888.77C18.7958 825.335 13.7153 771.381 133.393 652.224C329.944 510.163 573.62 527.061 781.394 355.393C916.08 235.905 973.371 158.426 1040.25 0" stroke="#4D3D26"/>
<path d="M431.853 1119C422.608 979.177 376.406 927.488 212.026 888.77C18.7958 825.335 13.7153 771.381 133.393 652.224C329.944 510.163 573.62 527.061 781.394 355.393C916.08 235.905 973.371 158.426 1040.25 0" stroke="#4D3D26"/>
<path d="M436.343 1117C428.063 977.427 386.683 925.831 239.456 887.181C66.3913 823.86 61.841 770.002 169.03 651.058C345.07 509.251 563.316 526.119 749.407 354.758C870.038 235.483 921.35 158.143 981.25 0" stroke="#4D3D26" stroke-width="1.5"/>
<path d="M436.343 1117C428.063 977.427 386.683 925.831 239.456 887.181C66.3913 823.86 61.841 770.002 169.03 651.058C345.07 509.251 563.316 526.119 749.407 354.758C870.038 235.483 921.35 158.143 981.25 0" stroke="#4D3D26" stroke-width="1.5"/>
<path d="M436.343 1117C428.063 977.427 386.683 925.831 239.456 887.181C66.3913 823.86 61.841 770.002 169.03 651.058C345.07 509.251 563.316 526.119 749.407 354.758C870.038 235.483 921.35 158.143 981.25 0" stroke="#4D3D26" stroke-width="1.5"/>
<path d="M339.343 1115C331.063 975.427 289.683 923.831 142.456 885.181C-30.6087 821.86 -35.159 768.002 72.0297 649.058C248.07 507.251 466.316 524.119 652.407 352.758C773.038 233.483 824.35 156.143 884.25 -2" stroke="#4D3D26" stroke-width="0.5"/>
<path d="M339.343 1115C331.063 975.427 289.683 923.831 142.456 885.181C-30.6087 821.86 -35.159 768.002 72.0297 649.058C248.07 507.251 466.316 524.119 652.407 352.758C773.038 233.483 824.35 156.143 884.25 -2" stroke="#4D3D26" stroke-width="0.5"/>
<path d="M339.343 1115C331.063 975.427 289.683 923.831 142.456 885.181C-30.6087 821.86 -35.159 768.002 72.0297 649.058C248.07 507.251 466.316 524.119 652.407 352.758C773.038 233.483 824.35 156.143 884.25 -2" stroke="#4D3D26" stroke-width="0.5"/>
</svg>
