<svg width="1310" height="724" viewBox="0 0 1310 724" fill="none" xmlns="http://www.w3.org/2000/svg">
<line x1="11" y1="10.834" x2="977" y2="10.834" stroke="#8D95A2"/>
<line x1="1037.99" y1="10.834" x2="1299.54" y2="10.834" stroke="#8D95A2"/>
<path d="M1007.6 16.6237C1007.34 10.0609 1009.02 7.98035 1013.88 5.91134C1012.11 5.30602 1011.16 5.33254 1009.54 6.0884C1009.2 3.23365 1008.87 1.91367 1007.77 0.687988" stroke="#8D95A2"/>
<path d="M1007.6 16.5353C1007.85 9.97252 1006.18 7.89195 1001.31 5.82293C1003.08 5.21761 1004.03 5.24414 1005.65 5.99999C1006 3.14524 1006.67 1.55966 1007.77 0.333984" stroke="#8D95A2"/>
<path d="M1005.74 18.5717L1007.6 16.624L1009.46 18.5717L1007.6 20.5194L1005.74 18.5717Z" stroke="#8D95A2"/>
<path d="M1007.59 16.6488C1007.32 15.2812 1007 14.5474 1006.2 13.2892C1005.43 12.2209 1004.92 11.6543 1003.9 10.6933C1002.08 9.5005 1000.84 9.21789 998.413 9.08288C997.32 9.24722 996.896 9.40951 996.245 9.73567C995.157 10.4264 994.639 10.8675 993.953 11.7848C993.089 13.3696 993.256 14.2061 993.608 15.6946C994.021 16.4822 994.388 16.794 995.16 17.239C996.159 17.7251 996.696 17.8363 997.636 17.8799C999.036 17.5723 999.831 16.8136 1000.33 16.0074C1000.61 14.9821 1000.5 14.5356 1000.24 13.8882C999.98 13.2408 999.687 12.9434 998.955 12.5081C998.222 12.0729 996.368 12.1199 995.912 13.5058C995.731 14.0223 995.708 14.2972 995.801 14.7625C996.054 15.2754 996.263 15.4608 996.704 15.6867" stroke="#8D95A2"/>
<path d="M1007.57 16.6488C1007.84 15.2812 1008.16 14.5474 1008.96 13.2891C1009.73 12.2208 1010.24 11.6542 1011.27 10.6933C1013.09 9.50041 1014.33 9.21778 1016.75 9.08274C1017.84 9.24706 1018.27 9.40934 1018.92 9.7355C1020.01 10.4262 1020.52 10.8673 1021.21 11.7846C1022.08 13.3694 1021.91 14.2058 1021.56 15.6944C1021.14 16.482 1020.78 16.7938 1020 17.2388C1019 17.7249 1018.47 17.8362 1017.53 17.8798C1016.13 17.5722 1015.33 16.8134 1014.83 16.0073C1014.55 14.982 1014.66 14.5355 1014.92 13.8881C1015.18 13.2407 1015.48 12.9433 1016.21 12.508C1016.94 12.0727 1018.8 12.1197 1019.25 13.5056C1019.43 14.0221 1019.46 14.297 1019.36 14.7624C1019.11 15.2752 1018.9 15.4606 1018.46 15.6865" stroke="#8D95A2"/>
<rect y="-0.70718" width="7.07321" height="7.07321" transform="matrix(0.707034 -0.70718 -0.707034 -0.70718 1303.2 14.5452)" stroke="#8D95A2"/>
<rect y="-0.70718" width="7.07321" height="7.07321" transform="matrix(0.707034 -0.70718 -0.707034 -0.70718 5.20898 15.5452)" stroke="#8D95A2"/>
<line x1="139.997" y1="712.334" x2="975.999" y2="713.834" stroke="#8D95A2"/>
<line y1="-0.5" x2="261.545" y2="-0.5" transform="matrix(1 0 0 -1 1037.99 713.334)" stroke="#8D95A2"/>
<path d="M1007.6 707.229C1007.34 713.79 1009.02 715.87 1013.88 717.939C1012.11 718.544 1011.16 718.518 1009.54 717.762C1009.2 720.616 1008.87 721.936 1007.77 723.161" stroke="#8D95A2"/>
<path d="M1007.6 707.317C1007.85 713.879 1006.18 715.959 1001.31 718.027C1003.08 718.633 1004.03 718.606 1005.65 717.85C1006 720.704 1006.67 722.29 1007.77 723.515" stroke="#8D95A2"/>
<path d="M1005.74 705.281L1007.6 707.229L1009.45 705.281L1007.6 703.334L1005.74 705.281Z" stroke="#8D95A2"/>
<path d="M1007.59 707.204C1007.32 708.571 1007 709.305 1006.2 710.563C1005.43 711.631 1004.92 712.197 1003.9 713.158C1002.07 714.35 1000.83 714.633 998.412 714.768C997.319 714.604 996.895 714.441 996.244 714.115C995.156 713.425 994.638 712.984 993.952 712.067C993.088 710.482 993.255 709.646 993.607 708.158C994.02 707.37 994.388 707.058 995.159 706.614C996.158 706.128 996.695 706.016 997.635 705.973C999.035 706.28 999.83 707.039 1000.33 707.845C1000.61 708.87 1000.5 709.316 1000.24 709.964C999.979 710.611 999.686 710.908 998.953 711.343C998.221 711.779 996.367 711.732 995.911 710.346C995.73 709.83 995.707 709.555 995.8 709.09C996.053 708.577 996.262 708.391 996.703 708.166" stroke="#8D95A2"/>
<path d="M1007.57 707.204C1007.84 708.571 1008.16 709.305 1008.96 710.563C1009.73 711.631 1010.24 712.197 1011.26 713.158C1013.09 714.35 1014.33 714.633 1016.75 714.768C1017.84 714.604 1018.27 714.441 1018.92 714.115C1020.01 713.425 1020.52 712.984 1021.21 712.067C1022.07 710.482 1021.91 709.646 1021.56 708.158C1021.14 707.37 1020.77 707.058 1020 706.614C1019 706.128 1018.47 706.016 1017.53 705.973C1016.13 706.28 1015.33 707.039 1014.83 707.845C1014.55 708.87 1014.66 709.316 1014.92 709.964C1015.18 710.611 1015.48 710.908 1016.21 711.343C1016.94 711.779 1018.8 711.732 1019.25 710.346C1019.43 709.83 1019.46 709.555 1019.36 709.09C1019.11 708.577 1018.9 708.391 1018.46 708.166" stroke="#8D95A2"/>
<rect x="1303.7" y="709.041" width="7.07238" height="7.07238" transform="rotate(45 1303.7 709.041)" stroke="#8D95A2"/>
<rect x="134.705" y="707.041" width="7.07238" height="7.07238" transform="rotate(45 134.705 707.041)" stroke="#8D95A2"/>
</svg>
