<svg width="612" height="22" viewBox="0 0 612 22" fill="none" xmlns="http://www.w3.org/2000/svg">
<line y1="-0.5" x2="265.581" y2="-0.5" transform="matrix(1 0 0 -1 10.4941 8.79785)" stroke="#8D95A2"/>
<line y1="-0.5" x2="261.545" y2="-0.5" transform="matrix(1 0 0 -1 339.848 8.79785)" stroke="#8D95A2"/>
<path d="M309.246 4.61936C308.989 11.1808 310.667 13.2609 315.53 15.3295C313.759 15.9347 312.81 15.9082 311.193 15.1525C310.847 18.0066 310.523 19.3263 309.423 20.5518" stroke="#8D95A2"/>
<path d="M309.247 4.70831C309.503 11.2697 307.825 13.3499 302.962 15.4184C304.734 16.0236 305.683 15.9971 307.3 15.2414C307.646 18.0956 308.324 19.6808 309.424 20.9062" stroke="#8D95A2"/>
<path d="M307.387 2.67184L309.246 4.61914L311.104 2.67184L309.246 0.724547L307.387 2.67184Z" stroke="#8D95A2"/>
<path d="M309.243 4.59479C308.971 5.96214 308.652 6.69574 307.851 7.95372C307.081 9.02178 306.571 9.58828 305.548 10.549C303.725 11.7416 302.485 12.0242 300.062 12.1591C298.969 11.9948 298.546 11.8326 297.894 11.5065C296.807 10.8159 296.289 10.3749 295.603 9.45776C294.738 7.87326 294.906 7.03702 295.257 5.54879C295.671 4.76139 296.038 4.4496 296.809 4.00474C297.809 3.51872 298.345 3.40749 299.285 3.36395C300.685 3.6715 301.48 4.43006 301.983 5.23606C302.261 6.26116 302.148 6.70753 301.889 7.35482C301.629 8.0021 301.336 8.29942 300.604 8.73459C299.871 9.16976 298.017 9.12274 297.561 7.73711C297.38 7.22074 297.357 6.94591 297.45 6.48066C297.703 5.96792 297.912 5.78256 298.353 5.55669" stroke="#8D95A2"/>
<path d="M309.22 4.59479C309.492 5.96214 309.811 6.69574 310.612 7.95372C311.382 9.02178 311.892 9.58828 312.915 10.549C314.738 11.7416 315.978 12.0242 318.401 12.1591C319.494 11.9948 319.917 11.8326 320.569 11.5065C321.656 10.8159 322.174 10.3749 322.86 9.45776C323.725 7.87326 323.557 7.03702 323.206 5.54879C322.792 4.76139 322.425 4.4496 321.654 4.00474C320.654 3.51872 320.118 3.40749 319.178 3.36395C317.778 3.6715 316.983 4.43006 316.48 5.23606C316.202 6.26116 316.315 6.70754 316.574 7.35482C316.833 8.0021 317.126 8.29942 317.859 8.73459C318.592 9.16976 320.446 9.12274 320.902 7.73711C321.083 7.22074 321.105 6.94591 321.013 6.48066C320.76 5.96792 320.551 5.78256 320.11 5.5567" stroke="#8D95A2"/>
<rect x="606.293" y="4.54695" width="7.07238" height="7.07238" transform="rotate(45 606.293 4.54695)" stroke="#8D95A2"/>
<rect x="5.70898" y="4.54695" width="7.07238" height="7.07238" transform="rotate(45 5.70898 4.54695)" stroke="#8D95A2"/>
</svg>
