<svg width="612" height="22" viewBox="0 0 612 22" fill="none" xmlns="http://www.w3.org/2000/svg">
<line x1="10.4941" y1="11.9453" x2="276.075" y2="11.9453" stroke="#8D95A2"/>
<line x1="339.848" y1="11.9453" x2="601.393" y2="11.9453" stroke="#8D95A2"/>
<path d="M309.246 16.6232C308.989 10.0604 310.667 7.97987 315.53 5.91085C313.759 5.30553 312.81 5.33205 311.193 6.08791C310.847 3.23316 310.523 1.91318 309.423 0.6875" stroke="#8D95A2"/>
<path d="M309.245 16.5353C309.501 9.97252 307.824 7.89195 302.96 5.82293C304.732 5.21761 305.681 5.24414 307.298 5.99999C307.644 3.14524 308.322 1.55966 309.422 0.333984" stroke="#8D95A2"/>
<path d="M307.387 18.5717L309.246 16.624L311.104 18.5717L309.246 20.5194L307.387 18.5717Z" stroke="#8D95A2"/>
<path d="M309.242 16.6488C308.971 15.2812 308.652 14.5474 307.851 13.2892C307.08 12.2209 306.57 11.6543 305.547 10.6933C303.724 9.5005 302.484 9.21789 300.06 9.08288C298.968 9.24722 298.544 9.40951 297.892 9.73567C296.804 10.4264 296.287 10.8675 295.6 11.7848C294.736 13.3696 294.903 14.2061 295.255 15.6946C295.668 16.4822 296.036 16.794 296.807 17.239C297.806 17.7251 298.343 17.8363 299.283 17.8799C300.684 17.5723 301.479 16.8136 301.982 16.0074C302.26 14.9821 302.147 14.5356 301.887 13.8882C301.628 13.2408 301.335 12.9434 300.602 12.5081C299.869 12.0729 298.015 12.1199 297.559 13.5058C297.378 14.0223 297.355 14.2972 297.448 14.7625C297.701 15.2754 297.91 15.4608 298.351 15.6867" stroke="#8D95A2"/>
<path d="M309.218 16.6488C309.49 15.2812 309.809 14.5474 310.61 13.2891C311.381 12.2208 311.891 11.6542 312.914 10.6933C314.737 9.50041 315.977 9.21778 318.401 9.08274C319.493 9.24706 319.917 9.40934 320.569 9.7355C321.656 10.4262 322.174 10.8673 322.861 11.7846C323.725 13.3694 323.558 14.2058 323.206 15.6944C322.793 16.482 322.425 16.7938 321.654 17.2388C320.654 17.7249 320.118 17.8362 319.177 17.8798C317.777 17.5722 316.982 16.8134 316.479 16.0073C316.201 14.982 316.314 14.5355 316.573 13.8881C316.833 13.2407 317.126 12.9433 317.859 12.508C318.592 12.0727 320.445 12.1197 320.902 13.5056C321.083 14.0221 321.106 14.297 321.013 14.7624C320.76 15.2752 320.551 15.4606 320.109 15.6865" stroke="#8D95A2"/>
<rect y="-0.70718" width="7.07321" height="7.07321" transform="matrix(0.707034 -0.70718 -0.707034 -0.70718 605.793 16.197)" stroke="#8D95A2"/>
<rect y="-0.70718" width="7.07321" height="7.07321" transform="matrix(0.707034 -0.70718 -0.707034 -0.70718 5.20898 16.197)" stroke="#8D95A2"/>
</svg>
