<svg width="759" height="27" viewBox="0 0 759 27" fill="none" xmlns="http://www.w3.org/2000/svg">
<line x1="13" y1="14.8339" x2="342" y2="14.8339" stroke="#8D95A2"/>
<line x1="421" y1="14.8339" x2="745" y2="14.8339" stroke="#8D95A2"/>
<path d="M383.094 20.5096C382.776 12.3814 384.854 9.8045 390.879 7.24195C388.684 6.49225 387.508 6.52509 385.506 7.46125C385.077 3.92554 384.675 2.29069 383.313 0.772644" stroke="#8D95A2"/>
<path d="M383.093 20.3998C383.411 12.2716 381.332 9.69473 375.308 7.13218C377.503 6.38248 378.678 6.41532 380.681 7.35148C381.11 3.81577 381.95 1.85197 383.312 0.333923" stroke="#8D95A2"/>
<path d="M380.791 22.9218L383.094 20.5095L385.396 22.9218L383.094 25.3341L380.791 22.9218Z" stroke="#8D95A2"/>
<path d="M383.089 20.5403C382.752 18.8464 382.358 17.9376 381.365 16.3793C380.411 15.0562 379.779 14.3544 378.512 13.1643C376.254 11.6869 374.718 11.3369 371.716 11.1696C370.363 11.3732 369.838 11.5742 369.031 11.9782C367.684 12.8336 367.042 13.38 366.192 14.5161C365.121 16.4789 365.329 17.5149 365.764 19.3585C366.276 20.3339 366.731 20.7202 367.687 21.2712C368.925 21.8733 369.589 22.0111 370.754 22.0651C372.488 21.6841 373.473 20.7444 374.096 19.7459C374.44 18.476 374.301 17.923 373.979 17.1212C373.658 16.3193 373.295 15.951 372.387 15.4119C371.48 14.8729 369.183 14.9311 368.618 16.6476C368.394 17.2873 368.366 17.6277 368.481 18.2041C368.794 18.8393 369.053 19.0689 369.6 19.3487" stroke="#8D95A2"/>
<path d="M383.061 20.5403C383.398 18.8464 383.793 17.9376 384.785 16.3793C385.74 15.0562 386.371 14.3544 387.638 13.1643C389.896 11.6869 391.432 11.3369 394.434 11.1696C395.788 11.3732 396.313 11.5742 397.12 11.9782C398.467 12.8336 399.108 13.38 399.958 14.5161C401.029 16.4789 400.822 17.5149 400.386 19.3585C399.874 20.3339 399.419 20.7202 398.464 21.2712C397.226 21.8733 396.561 22.0111 395.396 22.0651C393.662 21.6841 392.677 20.7444 392.054 19.7459C391.71 18.476 391.85 17.923 392.171 17.1212C392.492 16.3193 392.855 15.951 393.763 15.4119C394.671 14.8729 396.967 14.9311 397.532 16.6476C397.756 17.2873 397.784 17.6277 397.67 18.2041C397.356 18.8393 397.097 19.0689 396.551 19.3487" stroke="#8D95A2"/>
<rect y="-0.707107" width="9" height="9" transform="matrix(0.707107 -0.707107 -0.707107 -0.707107 750.57 20.2689)" stroke="#8D95A2"/>
<rect y="-0.707107" width="9" height="9" transform="matrix(0.707107 -0.707107 -0.707107 -0.707107 6.57031 20.2689)" stroke="#8D95A2"/>
</svg>
