<svg width="149" height="162" viewBox="0 0 149 162" fill="none" xmlns="http://www.w3.org/2000/svg">
<path d="M74.2008 0C111.001 0 129.401 12.7333 129.401 38.2C129.401 49.2667 126.267 57.6 120.001 63.2C113.734 68.8 105.934 72.4 96.6008 74C106.334 74.1333 113.667 77.2 118.601 83.2C123.667 89.2 126.201 96.7333 126.201 105.8V147.8C126.201 154.2 129.467 157.4 136.001 157.4C137.601 157.4 139.001 157.133 140.201 156.6C140.722 156.426 141.155 156.29 141.5 156.192C141.628 156.156 141.744 156.124 141.848 156.098C144.695 155.309 146.131 154.358 148.5 152.5C146.901 155.237 145.937 156.738 143.644 159C142.585 160.6 139.171 161.4 133.401 161.4C126.334 161.4 120.001 159.4 114.401 155.4C108.801 151.4 106.001 145.8 106.001 138.6V123C106.001 103.133 104.467 90.3333 101.401 84.6C100.201 82.3333 99.1341 80.6 98.2008 79.4C97.2674 78.2 95.8008 77.2667 93.8008 76.6C91.8008 75.9333 88.2008 75.4667 83.0008 75.2C66.3341 74.5333 57.6008 67.2667 56.8008 53.4V49.8C56.9341 42.4667 58.8674 37.2 62.6008 34C66.4674 30.8 70.2008 29.2 73.8008 29.2C77.4008 29.2 80.4674 29.8 83.0008 31C85.6674 32.2 87.0008 34.6 87.0008 34.6L87.5 35.5L89.9826 42.4513C90.0127 42.4982 90.0201 42.5165 90 42.5L89.9826 42.4513C89.6754 41.9719 87 38.5 87 38.5C87 38.5 85.0496 36.8364 85.0008 36.8C84.8819 36.7112 83.288 35.8441 81.6008 35C79.6008 33.8 77.0008 33.2 73.8008 33.2C70.6008 33.2 67.6008 34.5333 64.8008 37.2C62.0008 39.7333 60.6008 44 60.6008 50C60.6008 55.8667 62.6674 60.9333 66.8008 65.2C70.9341 69.3333 77.2008 71.4 85.6008 71.4C94.0008 71.4 100.401 69.2 104.801 64.8C109.334 60.4 111.601 52.1333 111.601 40C111.601 27.7333 108.801 18.6667 103.201 12.8C97.6008 6.93333 86.0674 0 74.2008 0Z" fill="white"/>
<path d="M32 25C29.2904 8.31687 24.1011 2.53703 7 0H32V25Z" fill="white"/>
<path d="M32 25C34.7096 8.31687 39.8989 2.53703 57 0H32V25Z" fill="white"/>
<path d="M32 124C29.2904 140.683 24.1011 146.463 7 149H32V124Z" fill="white"/>
<path d="M32 124C34.7096 140.683 39.8989 146.463 57 149H32V124Z" fill="white"/>
<path d="M29.23 121.73V122L28.84 121.67C26.94 119.93 25.38 118.53 24.16 117.47C22.94 116.39 22.08 115.69 21.58 115.37V114.14C22.14 114.9 22.98 115.84 24.1 116.96C25.22 118.08 26.8 119.54 28.84 121.34L29.23 121.73ZM34.09 120.98C34.09 120.58 33.88 120.03 33.46 119.33C33.02 118.63 32.47 117.88 31.81 117.08C31.13 116.28 30.39 115.52 29.59 114.8L29.23 114.44V114.17L29.5 114.44C30.38 115.2 31.18 116.01 31.9 116.87C32.62 117.73 33.19 118.52 33.61 119.24C34.03 119.96 34.24 120.55 34.24 121.01C34.24 121.25 34.16 121.5 34 121.76C33.84 122 33.58 122.12 33.22 122.12C32.74 122.12 32.23 121.93 31.69 121.55C31.15 121.17 30.6 120.7 30.04 120.14C29.48 119.56 28.94 118.99 28.42 118.43C27.88 117.87 27.39 117.4 26.95 117.02C26.51 116.64 26.13 116.45 25.81 116.45C25.47 116.45 25.3 116.66 25.3 117.08C25.3 117.26 25.33 117.48 25.39 117.74C25.45 117.98 25.54 118.25 25.66 118.55L25.36 118.31C25.26 118.07 25.17 117.84 25.09 117.62C25.01 117.38 24.97 117.13 24.97 116.87C24.97 116.39 25.07 116.01 25.27 115.73C25.45 115.43 25.76 115.28 26.2 115.28C26.72 115.28 27.25 115.49 27.79 115.91C28.31 116.33 28.83 116.86 29.35 117.5C29.85 118.12 30.34 118.75 30.82 119.39C31.3 120.01 31.77 120.54 32.23 120.98C32.67 121.4 33.1 121.61 33.52 121.61C33.9 121.61 34.09 121.4 34.09 120.98ZM34.09 114.171C34.09 113.531 33.89 112.801 33.49 111.981C33.09 111.161 32.55 110.311 31.87 109.431C31.19 108.531 30.43 107.701 29.59 106.941L29.23 106.611V106.311L29.5 106.581C30.38 107.381 31.19 108.251 31.93 109.191C32.65 110.111 33.22 111.011 33.64 111.891C34.04 112.751 34.24 113.511 34.24 114.171C34.24 114.651 34.07 115.031 33.73 115.311C33.39 115.611 32.91 115.761 32.29 115.761C31.69 115.761 31.06 115.581 30.4 115.221C29.74 114.861 29.1 114.391 28.48 113.811C27.84 113.211 27.27 112.541 26.77 111.801C26.25 111.061 25.84 110.301 25.54 109.521C25.24 108.741 25.09 107.991 25.09 107.271C25.09 106.951 25.16 106.701 25.3 106.521C25.42 106.321 25.59 106.221 25.81 106.221C26.19 106.221 26.6 106.441 27.04 106.881C27.48 107.321 27.89 107.891 28.27 108.591C28.65 109.291 28.96 110.041 29.2 110.841C29.44 111.621 29.56 112.371 29.56 113.091L29.32 112.821C29.28 112.141 29.15 111.441 28.93 110.721C28.69 110.001 28.39 109.331 28.03 108.711C27.67 108.071 27.3 107.561 26.92 107.181C26.52 106.781 26.15 106.581 25.81 106.581C25.51 106.581 25.36 106.781 25.36 107.181C25.36 107.621 25.56 108.181 25.96 108.861C26.34 109.521 26.84 110.211 27.46 110.931C28.08 111.651 28.76 112.321 29.5 112.941C30.22 113.561 30.92 114.061 31.6 114.441C32.26 114.841 32.82 115.041 33.28 115.041C33.82 115.041 34.09 114.751 34.09 114.171ZM29.23 106.319V106.619L28.84 106.289C27.68 105.229 26.75 104.219 26.05 103.259C25.33 102.299 24.97 101.539 24.97 100.979C24.97 100.739 25.05 100.549 25.21 100.409C25.37 100.249 25.57 100.169 25.81 100.169C26.33 100.169 26.92 100.389 27.58 100.829C28.24 101.269 29.13 102.029 30.25 103.109V102.749L31.24 103.469L34 105.959V108.359C33.36 107.479 32.63 106.579 31.81 105.659C30.97 104.739 30.14 103.889 29.32 103.109C28.48 102.329 27.73 101.699 27.07 101.219C26.41 100.719 25.94 100.469 25.66 100.469C25.34 100.469 25.18 100.639 25.18 100.979C25.18 101.299 25.35 101.739 25.69 102.299C26.01 102.859 26.45 103.469 27.01 104.129C27.57 104.769 28.19 105.389 28.87 105.989L29.23 106.319ZM34.24 100.259C34.24 100.539 34.13 100.779 33.91 100.979C33.67 101.179 33.38 101.279 33.04 101.279C32.52 101.279 31.98 101.089 31.42 100.709C30.86 100.309 30.31 99.8191 29.77 99.2391C29.21 98.6591 28.68 98.0791 28.18 97.4991C27.66 96.9191 27.2 96.4391 26.8 96.0591C26.38 95.6791 26.02 95.4891 25.72 95.4891C25.44 95.4891 25.3 95.6591 25.3 95.9991C25.3 96.3391 25.48 96.7991 25.84 97.3791C26.2 97.9591 26.67 98.6091 27.25 99.3291C27.83 100.049 28.47 100.769 29.17 101.489C29.87 102.189 30.56 102.849 31.24 103.469V103.799C30.54 103.159 29.83 102.469 29.11 101.729C28.39 100.989 27.73 100.259 27.13 99.5391C26.53 98.7991 26.04 98.1191 25.66 97.4991C25.28 96.8791 25.09 96.3691 25.09 95.9691C25.09 95.6891 25.19 95.4391 25.39 95.2191C25.57 94.9791 25.86 94.8591 26.26 94.8591C26.78 94.8591 27.31 95.0691 27.85 95.4891C28.39 95.8891 28.93 96.3791 29.47 96.9591C29.99 97.5391 30.5 98.1291 31 98.7291C31.48 99.3091 31.94 99.8091 32.38 100.229C32.82 100.629 33.21 100.829 33.55 100.829C33.69 100.829 33.82 100.769 33.94 100.649C34.04 100.529 34.09 100.389 34.09 100.229C34.09 99.8491 33.88 99.3191 33.46 98.6391C33.02 97.9391 32.46 97.1891 31.78 96.3891C31.1 95.5691 30.37 94.8191 29.59 94.1391L29.23 93.7791V93.5091L29.5 93.7491C30.38 94.5291 31.18 95.3491 31.9 96.2091C32.62 97.0491 33.19 97.8291 33.61 98.5491C34.03 99.2491 34.24 99.8191 34.24 100.259ZM34.18 94.4471C34.18 95.0671 33.71 95.3771 32.77 95.3771C32.13 95.3771 31.45 95.1871 30.73 94.8071C30.01 94.4271 29.32 93.9171 28.66 93.2771C27.98 92.6371 27.37 91.9271 26.83 91.1471C26.27 90.3471 25.83 89.5271 25.51 88.6871C25.19 87.8471 25.03 87.0471 25.03 86.2871C25.03 85.6471 25.28 85.3271 25.78 85.3271C26.22 85.3271 26.8 85.6271 27.52 86.2271C28.22 86.8071 29.03 87.5371 29.95 88.4171C30.67 89.1171 31.36 89.8571 32.02 90.6371C32.66 91.3971 33.18 92.1171 33.58 92.7971C33.98 93.4571 34.18 94.0071 34.18 94.4471ZM34 94.4171C34 94.0571 33.82 93.5771 33.46 92.9771C33.1 92.3571 32.61 91.6671 31.99 90.9071C31.35 90.1271 30.62 89.3471 29.8 88.5671C28.88 87.6671 28.09 86.9471 27.43 86.4071C26.75 85.8671 26.21 85.5971 25.81 85.5971C25.49 85.5971 25.33 85.7971 25.33 86.1971C25.33 86.5771 25.48 87.0571 25.78 87.6371C26.08 88.2171 26.48 88.8371 26.98 89.4971C27.48 90.1371 28.03 90.7771 28.63 91.4171C29.23 92.0571 29.84 92.6471 30.46 93.1871C31.08 93.7071 31.66 94.1271 32.2 94.4471C32.74 94.7671 33.19 94.9271 33.55 94.9271C33.85 94.9271 34 94.7571 34 94.4171ZM29.23 82.9271L29.5 83.1671C30.38 83.9471 31.19 84.7371 31.93 85.5371C32.65 86.3371 33.22 87.0771 33.64 87.7571C34.04 88.4171 34.24 88.9471 34.24 89.3471C34.24 89.5471 34.16 89.7271 34 89.8871C33.84 90.0471 33.64 90.1271 33.4 90.1271C32.76 90.1271 31.91 89.7871 30.85 89.1071C29.77 88.4071 28.59 87.4371 27.31 86.1971V86.0471L25.42 84.3371V82.1771C25.62 82.4971 25.86 82.8371 26.14 83.1971C26.42 83.5571 26.72 83.8971 27.04 84.2171C28.44 85.6171 29.56 86.7171 30.4 87.5171C31.24 88.3171 31.9 88.8871 32.38 89.2271C32.84 89.5671 33.22 89.7371 33.52 89.7371C33.9 89.7371 34.09 89.5871 34.09 89.2871C34.09 88.9471 33.9 88.4771 33.52 87.8771C33.12 87.2771 32.58 86.5971 31.9 85.8371C31.22 85.0771 30.45 84.3071 29.59 83.5271L29.23 83.1971V82.9271ZM34.24 84.7109C34.24 84.9309 34.16 85.1209 34 85.2809C33.84 85.4409 33.64 85.5209 33.4 85.5209C32.68 85.5209 31.7 85.0709 30.46 84.1709C29.2 83.2709 27.52 81.8209 25.42 79.8209V77.6009C25.56 77.8609 25.77 78.1609 26.05 78.5009C26.31 78.8409 26.64 79.2309 27.04 79.6709C28.34 81.0109 29.42 82.0809 30.28 82.8809C31.12 83.6809 31.8 84.2509 32.32 84.5909C32.82 84.9509 33.22 85.1309 33.52 85.1309C33.9 85.1309 34.09 84.9809 34.09 84.6809C34.09 84.3409 33.89 83.8509 33.49 83.2109C33.07 82.5909 32.52 81.9009 31.84 81.1409C31.14 80.3809 30.39 79.6409 29.59 78.9209L29.23 78.5609V78.2909L29.5 78.5309C30.42 79.3509 31.24 80.1609 31.96 80.9609C32.68 81.7609 33.24 82.4909 33.64 83.1509C34.04 83.8109 34.24 84.3309 34.24 84.7109ZM18.28 72.7409C18.28 72.5209 18.36 72.4109 18.52 72.4109C18.76 72.4109 19.05 72.5709 19.39 72.8909C19.73 73.2109 20.03 73.5709 20.29 73.9709C20.55 74.3709 20.68 74.7209 20.68 75.0209C20.68 75.2209 20.61 75.3209 20.47 75.3209C20.23 75.3209 19.94 75.1609 19.6 74.8409C19.26 74.5209 18.96 74.1609 18.7 73.7609C18.42 73.3409 18.28 73.0009 18.28 72.7409ZM29.23 78.2827V78.5527L28.84 78.2227C26.94 76.4827 25.38 75.0827 24.16 74.0227C22.94 72.9427 22.08 72.2427 21.58 71.9227V70.6927C22.16 71.4527 23.01 72.3927 24.13 73.5127C25.25 74.6127 26.82 76.0727 28.84 77.8927L29.23 78.2827ZM29.5 71.2927C30.66 72.3127 31.56 73.3827 32.2 74.5027C32.82 75.6227 33.13 76.7227 33.13 77.8027C33.13 78.6027 33.2 79.2727 33.34 79.8127C33.48 80.3727 33.66 80.6527 33.88 80.6527C34.02 80.6527 34.09 80.5327 34.09 80.2927C34.09 79.5327 33.88 78.7927 33.46 78.0727C33.04 77.3527 32.49 76.7027 31.81 76.1227C31.11 75.5427 30.33 75.0827 29.47 74.7427C28.59 74.4027 27.7 74.2327 26.8 74.2327C26.24 74.2327 25.76 74.1927 25.36 74.1127C24.94 74.0127 24.51 73.8327 24.07 73.5727C23.61 73.2927 23.08 72.8627 22.48 72.2827L21.58 70.7227C22.1 71.4027 22.53 71.9327 22.87 72.3127C23.19 72.6727 23.48 72.9327 23.74 73.0927C23.98 73.2327 24.25 73.3027 24.55 73.3027C24.85 73.3027 25.28 73.2427 25.84 73.1227C26.4 73.0027 26.96 72.9427 27.52 72.9427C28.36 72.9427 29.18 73.1627 29.98 73.6027C30.78 74.0227 31.5 74.5827 32.14 75.2827C32.78 75.9827 33.29 76.7627 33.67 77.6227C34.05 78.4827 34.24 79.3527 34.24 80.2327C34.24 80.6327 34.12 80.8327 33.88 80.8327C33.62 80.8327 33.4 80.5427 33.22 79.9627C33.02 79.3827 32.92 78.6627 32.92 77.8027C32.92 75.7227 31.81 73.6727 29.59 71.6527L29.23 71.3227V71.0227L29.5 71.2927ZM29.23 71.0464V71.3164L28.84 70.9864C26.94 69.2464 25.38 67.8464 24.16 66.7864C22.94 65.7064 22.08 65.0064 21.58 64.6864V63.4564C22.16 64.2164 23.01 65.1564 24.13 66.2764C25.25 67.3764 26.82 68.8364 28.84 70.6564L29.23 71.0464ZM29.5 64.0564C30.66 65.0764 31.56 66.1464 32.2 67.2664C32.82 68.3864 33.13 69.4864 33.13 70.5664C33.13 71.3664 33.2 72.0364 33.34 72.5764C33.48 73.1364 33.66 73.4164 33.88 73.4164C34.02 73.4164 34.09 73.2964 34.09 73.0564C34.09 72.2964 33.88 71.5564 33.46 70.8364C33.04 70.1164 32.49 69.4664 31.81 68.8864C31.11 68.3064 30.33 67.8464 29.47 67.5064C28.59 67.1664 27.7 66.9964 26.8 66.9964C26.24 66.9964 25.76 66.9564 25.36 66.8764C24.94 66.7764 24.51 66.5964 24.07 66.3364C23.61 66.0564 23.08 65.6264 22.48 65.0464L21.58 63.4864C22.1 64.1664 22.53 64.6964 22.87 65.0764C23.19 65.4364 23.48 65.6964 23.74 65.8564C23.98 65.9964 24.25 66.0664 24.55 66.0664C24.85 66.0664 25.28 66.0064 25.84 65.8864C26.4 65.7664 26.96 65.7064 27.52 65.7064C28.36 65.7064 29.18 65.9264 29.98 66.3664C30.78 66.7864 31.5 67.3464 32.14 68.0464C32.78 68.7464 33.29 69.5264 33.67 70.3864C34.05 71.2464 34.24 72.1164 34.24 72.9964C34.24 73.3964 34.12 73.5964 33.88 73.5964C33.62 73.5964 33.4 73.3064 33.22 72.7264C33.02 72.1464 32.92 71.4264 32.92 70.5664C32.92 68.4864 31.81 66.4364 29.59 64.4164L29.23 64.0864V63.7864L29.5 64.0564ZM34.18 64.7401C34.18 65.3601 33.71 65.6701 32.77 65.6701C32.13 65.6701 31.45 65.4801 30.73 65.1001C30.01 64.7201 29.32 64.2101 28.66 63.5701C27.98 62.9301 27.37 62.2201 26.83 61.4401C26.27 60.6401 25.83 59.8201 25.51 58.9801C25.19 58.1401 25.03 57.3401 25.03 56.5801C25.03 55.9401 25.28 55.6201 25.78 55.6201C26.22 55.6201 26.8 55.9201 27.52 56.5201C28.22 57.1001 29.03 57.8301 29.95 58.7101C30.67 59.4101 31.36 60.1501 32.02 60.9301C32.66 61.6901 33.18 62.4101 33.58 63.0901C33.98 63.7501 34.18 64.3001 34.18 64.7401ZM34 64.7101C34 64.3501 33.82 63.8701 33.46 63.2701C33.1 62.6501 32.61 61.9601 31.99 61.2001C31.35 60.4201 30.62 59.6401 29.8 58.8601C28.88 57.9601 28.09 57.2401 27.43 56.7001C26.75 56.1601 26.21 55.8901 25.81 55.8901C25.49 55.8901 25.33 56.0901 25.33 56.4901C25.33 56.8701 25.48 57.3501 25.78 57.9301C26.08 58.5101 26.48 59.1301 26.98 59.7901C27.48 60.4301 28.03 61.0701 28.63 61.7101C29.23 62.3501 29.84 62.9401 30.46 63.4801C31.08 64.0001 31.66 64.4201 32.2 64.7401C32.74 65.0601 33.19 65.2201 33.55 65.2201C33.85 65.2201 34 65.0501 34 64.7101ZM29.23 53.2201L29.5 53.4601C30.38 54.2401 31.19 55.0301 31.93 55.8301C32.65 56.6301 33.22 57.3701 33.64 58.0501C34.04 58.7101 34.24 59.2401 34.24 59.6401C34.24 59.8401 34.16 60.0201 34 60.1801C33.84 60.3401 33.64 60.4201 33.4 60.4201C32.76 60.4201 31.91 60.0801 30.85 59.4001C29.77 58.7001 28.59 57.7301 27.31 56.4901V56.3401L25.42 54.6301V52.4701C25.62 52.7901 25.86 53.1301 26.14 53.4901C26.42 53.8501 26.72 54.1901 27.04 54.5101C28.44 55.9101 29.56 57.0101 30.4 57.8101C31.24 58.6101 31.9 59.1801 32.38 59.5201C32.84 59.8601 33.22 60.0301 33.52 60.0301C33.9 60.0301 34.09 59.8801 34.09 59.5801C34.09 59.2401 33.9 58.7701 33.52 58.1701C33.12 57.5701 32.58 56.8901 31.9 56.1301C31.22 55.3701 30.45 54.6001 29.59 53.8201L29.23 53.4901V53.2201ZM29.23 53.2039V53.5039L28.84 53.1739C27.68 52.1139 26.75 51.1039 26.05 50.1439C25.33 49.1839 24.97 48.4239 24.97 47.8639C24.97 47.6239 25.05 47.4339 25.21 47.2939C25.37 47.1339 25.57 47.0539 25.81 47.0539C26.33 47.0539 26.92 47.2739 27.58 47.7139C28.24 48.1539 29.13 48.9139 30.25 49.9939V49.6339L31.24 50.3539L34 52.8439V55.2439C33.36 54.3639 32.63 53.4639 31.81 52.5439C30.97 51.6239 30.14 50.7739 29.32 49.9939C28.48 49.2139 27.73 48.5839 27.07 48.1039C26.41 47.6039 25.94 47.3539 25.66 47.3539C25.34 47.3539 25.18 47.5239 25.18 47.8639C25.18 48.1839 25.35 48.6239 25.69 49.1839C26.01 49.7439 26.45 50.3539 27.01 51.0139C27.57 51.6539 28.19 52.2739 28.87 52.8739L29.23 53.2039ZM34.24 47.1439C34.24 47.4239 34.13 47.6639 33.91 47.8639C33.67 48.0639 33.38 48.1639 33.04 48.1639C32.52 48.1639 31.98 47.9739 31.42 47.5939C30.86 47.1939 30.31 46.7039 29.77 46.1239C29.21 45.5439 28.68 44.9639 28.18 44.3839C27.66 43.8039 27.2 43.3239 26.8 42.9439C26.38 42.5639 26.02 42.3739 25.72 42.3739C25.44 42.3739 25.3 42.5439 25.3 42.8839C25.3 43.2239 25.48 43.6839 25.84 44.2639C26.2 44.8439 26.67 45.4939 27.25 46.2139C27.83 46.9339 28.47 47.6539 29.17 48.3739C29.87 49.0739 30.56 49.7339 31.24 50.3539V50.6839C30.54 50.0439 29.83 49.3539 29.11 48.6139C28.39 47.8739 27.73 47.1439 27.13 46.4239C26.53 45.6839 26.04 45.0039 25.66 44.3839C25.28 43.7639 25.09 43.2539 25.09 42.8539C25.09 42.5739 25.19 42.3239 25.39 42.1039C25.57 41.8639 25.86 41.7439 26.26 41.7439C26.78 41.7439 27.31 41.9539 27.85 42.3739C28.39 42.7739 28.93 43.2639 29.47 43.8439C29.99 44.4239 30.5 45.0139 31 45.6139C31.48 46.1939 31.94 46.6939 32.38 47.1139C32.82 47.5139 33.21 47.7139 33.55 47.7139C33.69 47.7139 33.82 47.6539 33.94 47.5339C34.04 47.4139 34.09 47.2739 34.09 47.1139C34.09 46.7339 33.88 46.2039 33.46 45.5239C33.02 44.8239 32.46 44.0739 31.78 43.2739C31.1 42.4539 30.37 41.7039 29.59 41.0239L29.23 40.6639V40.3939L29.5 40.6339C30.38 41.4139 31.18 42.2339 31.9 43.0939C32.62 43.9339 33.19 44.7139 33.61 45.4339C34.03 46.1339 34.24 46.7039 34.24 47.1439ZM34.24 40.3419C34.24 40.8019 34.06 41.1719 33.7 41.4519C33.32 41.7519 32.83 41.9019 32.23 41.9019C31.63 41.9019 31 41.7219 30.34 41.3619C29.68 41.0219 29.04 40.5619 28.42 39.9819C27.8 39.3819 27.24 38.7219 26.74 38.0019C26.24 37.2619 25.84 36.5019 25.54 35.7219C25.24 34.9419 25.09 34.1919 25.09 33.4719C25.09 32.5319 25.38 32.0619 25.96 32.0619C26.26 32.0619 26.65 32.2319 27.13 32.5719C27.59 32.8919 27.98 33.2719 28.3 33.7119V35.0019C28.12 34.6419 27.87 34.2719 27.55 33.8919C27.23 33.4919 26.91 33.1619 26.59 32.9019C26.25 32.6219 25.99 32.4819 25.81 32.4819C25.49 32.4819 25.33 32.7319 25.33 33.2319C25.33 33.7319 25.52 34.3219 25.9 35.0019C26.28 35.6819 26.79 36.3919 27.43 37.1319C28.05 37.8519 28.72 38.5219 29.44 39.1419C30.16 39.7619 30.86 40.2719 31.54 40.6719C32.22 41.0719 32.8 41.2719 33.28 41.2719C33.82 41.2719 34.09 40.9419 34.09 40.2819C34.09 39.5819 33.89 38.7919 33.49 37.9119C33.09 37.0119 32.55 36.1119 31.87 35.2119C31.19 34.2919 30.43 33.4519 29.59 32.6919L29.23 32.3619V32.0619L29.5 32.3319C30.42 33.1319 31.24 34.0119 31.96 34.9719C32.68 35.9319 33.24 36.8719 33.64 37.7919C34.04 38.7119 34.24 39.5619 34.24 40.3419ZM34.09 32.0816C34.09 31.4416 33.89 30.7116 33.49 29.8916C33.09 29.0716 32.55 28.2216 31.87 27.3416C31.19 26.4416 30.43 25.6116 29.59 24.8516L29.23 24.5216V24.2216L29.5 24.4916C30.38 25.2916 31.19 26.1616 31.93 27.1016C32.65 28.0216 33.22 28.9216 33.64 29.8016C34.04 30.6616 34.24 31.4216 34.24 32.0816C34.24 32.5616 34.07 32.9416 33.73 33.2216C33.39 33.5216 32.91 33.6716 32.29 33.6716C31.69 33.6716 31.06 33.4916 30.4 33.1316C29.74 32.7716 29.1 32.3016 28.48 31.7216C27.84 31.1216 27.27 30.4516 26.77 29.7116C26.25 28.9716 25.84 28.2116 25.54 27.4316C25.24 26.6516 25.09 25.9016 25.09 25.1816C25.09 24.8616 25.16 24.6116 25.3 24.4316C25.42 24.2316 25.59 24.1316 25.81 24.1316C26.19 24.1316 26.6 24.3516 27.04 24.7916C27.48 25.2316 27.89 25.8016 28.27 26.5016C28.65 27.2016 28.96 27.9516 29.2 28.7516C29.44 29.5316 29.56 30.2816 29.56 31.0016L29.32 30.7316C29.28 30.0516 29.15 29.3516 28.93 28.6316C28.69 27.9116 28.39 27.2416 28.03 26.6216C27.67 25.9816 27.3 25.4716 26.92 25.0916C26.52 24.6916 26.15 24.4916 25.81 24.4916C25.51 24.4916 25.36 24.6916 25.36 25.0916C25.36 25.5316 25.56 26.0916 25.96 26.7716C26.34 27.4316 26.84 28.1216 27.46 28.8416C28.08 29.5616 28.76 30.2316 29.5 30.8516C30.22 31.4716 30.92 31.9716 31.6 32.3516C32.26 32.7516 32.82 32.9516 33.28 32.9516C33.82 32.9516 34.09 32.6616 34.09 32.0816Z" fill="white"/>
</svg>
